<?xml version="1.0" encoding="utf-8"?><!-- Uploaded to: SVG Repo, www.svgrepo.com, Generator: SVG Repo Mixer Tools -->
<svg fill="#000000" width="800px" height="800px" viewBox="0 0 24 24" id="clipboard-add-3" data-name="Flat Color" xmlns="http://www.w3.org/2000/svg" class="icon flat-color"><path id="primary" d="M15,5H5A2,2,0,0,0,3,7V20a2,2,0,0,0,2,2h8a1,1,0,0,0,1-1V17a2,2,0,0,1,2-2h0a1,1,0,0,0,1-1V7A2,2,0,0,0,15,5Z" style="fill: rgb(0, 0, 0);"></path><path id="secondary" d="M11,18H7a1,1,0,0,1,0-2h4a1,1,0,0,1,0,2Zm3-5a1,1,0,0,0-1-1H7a1,1,0,0,0,0,2h6A1,1,0,0,0,14,13ZM12,4A2,2,0,0,0,8,4H7A1,1,0,0,0,6,5V7A1,1,0,0,0,7,8h6a1,1,0,0,0,1-1V5a1,1,0,0,0-1-1Zm8,14H19V17a1,1,0,0,0-2,0v1H16a1,1,0,0,0,0,2h1v1a1,1,0,0,0,2,0V20h1a1,1,0,0,0,0-2Z" style="fill: rgb(44, 169, 188);"></path></svg>