<?xml version="1.0" encoding="utf-8"?><!-- Uploaded to: SVG Repo, www.svgrepo.com, Generator: SVG Repo Mixer Tools -->
<svg fill="#000000" width="800px" height="800px" viewBox="0 0 24 24" id="clipboard-edit-3" data-name="Flat Color" xmlns="http://www.w3.org/2000/svg" class="icon flat-color"><rect id="primary" x="3" y="5" width="14" height="17" rx="2" style="fill: rgb(0, 0, 0);"></rect><path id="secondary" d="M12,4A2,2,0,0,0,8,4H7A1,1,0,0,0,6,5V7A1,1,0,0,0,7,8h6a1,1,0,0,0,1-1V5a1,1,0,0,0-1-1Zm7.31,4.29,1.4,1.4a1,1,0,0,1,0,1.4L14.1,17.71a1.05,1.05,0,0,1-.71.29H12a1,1,0,0,1-1-1V15.61a1.05,1.05,0,0,1,.29-.71l6.62-6.61A1,1,0,0,1,19.31,8.29Z" style="fill: rgb(44, 169, 188);"></path></svg>